<?xml version="1.0" standalone="no"?><!DOCTYPE svg PUBLIC "-//W3C//DTD SVG 1.1//EN" "http://www.w3.org/Graphics/SVG/1.1/DTD/svg11.dtd"><svg t="1649894155041" class="icon" viewBox="0 0 1024 1024" version="1.1" xmlns="http://www.w3.org/2000/svg" p-id="5792" xmlns:xlink="http://www.w3.org/1999/xlink" width="100" height="100"><defs><style type="text/css">@font-face { font-family: feedback-iconfont; src: url("//at.alicdn.com/t/font_1031158_u69w8yhxdu.woff2?t=1630033759944") format("woff2"), url("//at.alicdn.com/t/font_1031158_u69w8yhxdu.woff?t=1630033759944") format("woff"), url("//at.alicdn.com/t/font_1031158_u69w8yhxdu.ttf?t=1630033759944") format("truetype"); }
</style></defs><path d="M779.96 329.43H244.04c-17.69 0-32.04-14.34-32.04-32.04 0-17.69 14.34-32.04 32.04-32.04h535.92c17.69 0 32.04 14.34 32.04 32.04 0 17.69-14.34 32.04-32.04 32.04z" p-id="5793"></path><path d="M749.83 300.54C749.36 169.58 643.06 63.57 512 63.57S274.64 169.58 274.17 300.54h475.66zM512 639.98c-60.29 0-116.93-24.96-159.48-70.28-42.37-45.12-65.7-105.06-65.7-168.79 0-7.2 0.32-14.59 0.96-21.97 0.51-5.95 5.49-10.52 11.46-10.52h425.54c5.97 0 10.95 4.57 11.46 10.52 0.63 7.38 0.96 14.77 0.96 21.97 0 63.72-23.33 123.66-65.7 168.79-42.57 45.32-99.21 70.28-159.5 70.28z" p-id="5794"></path><path d="M724.77 379.92c0.59 6.91 0.91 13.91 0.91 20.99 0 125.68-95.67 227.57-213.69 227.57S298.31 526.59 298.31 400.91c0-7.08 0.32-14.08 0.91-20.99h425.55m0-23H299.23c-11.94 0-21.89 9.14-22.92 21.03-0.66 7.71-1 15.43-1 22.96 0 33.64 6.2 66.3 18.42 97.07 11.83 29.8 28.79 56.57 50.4 79.59 21.71 23.12 47.02 41.28 75.24 54 29.33 13.21 60.5 19.91 92.62 19.91s63.29-6.7 92.62-19.91c28.22-12.71 53.54-30.88 75.24-54 21.61-23.02 38.57-49.79 50.4-79.59 12.22-30.77 18.42-63.43 18.42-97.07 0-7.53-0.34-15.25-1-22.96-1-11.89-10.96-21.03-22.9-21.03z" p-id="5795"></path><path d="M436.1 579.47h151.8v171.95H436.1z" p-id="5796"></path><path d="M780.17 946.29c-7.18 0-13-5.82-13-13V771.54c0-4.58 2.41-8.83 6.35-11.17a12.94 12.94 0 0 1 6.65-1.83c2.13 0 4.27 0.52 6.2 1.58 38.36 20.84 71.51 45.74 98.53 74.01 27.71 29.01 48.24 60.82 61.02 94.56a12.996 12.996 0 0 1-12.16 17.6H780.17z" p-id="5797"></path><path d="M780.17 771.54c74.06 40.22 128.96 96.71 153.59 161.75H780.17V771.54m0-26c-4.6 0-9.2 1.22-13.29 3.65a26.01 26.01 0 0 0-12.71 22.35v161.75c0 14.36 11.64 26 26 26h153.59c8.54 0 16.54-4.2 21.39-11.23a25.993 25.993 0 0 0 2.92-23.98c-13.4-35.37-34.86-68.66-63.78-98.93-27.95-29.25-62.17-54.98-101.72-76.46-3.87-2.1-8.14-3.15-12.4-3.15zM320.27 946.29c-7.18 0-13-5.82-13-13V738.25c0-5.56 3.54-10.51 8.8-12.3 61.33-20.92 127.25-31.52 195.93-31.52 68.86 0 134.92 10.66 196.37 31.67 5.26 1.8 8.79 6.74 8.79 12.3v194.89c0 7.18-5.82 13-13 13H320.27z" p-id="5798"></path><path d="M512 707.43c68.97 0 134.19 11.14 192.17 30.97v194.89h-383.9V738.26c57.87-19.74 122.93-30.83 191.73-30.83m0-26c-70.11 0-137.44 10.84-200.13 32.22a25.998 25.998 0 0 0-17.61 24.61V933.3c0 14.36 11.64 26 26 26h383.9c14.36 0 26-11.64 26-26V738.4a26 26 0 0 0-17.59-24.6c-62.8-21.48-130.28-32.37-200.57-32.37z" p-id="5799"></path><path d="M90.24 946.29c-4.27 0-8.27-2.1-10.7-5.61s-2.97-8-1.46-11.99c12.8-33.8 33.39-65.67 61.18-94.72 27.09-28.32 60.33-53.25 98.81-74.09a12.94 12.94 0 0 1 6.19-1.57c2.3 0 4.61 0.61 6.65 1.83 3.94 2.34 6.35 6.59 6.35 11.17v161.98c0 7.18-5.82 13-13 13H90.24z" p-id="5800"></path><path d="M244.27 771.31v161.98H90.24c24.69-65.16 79.75-121.74 154.03-161.98m0-26c-4.26 0-8.52 1.04-12.38 3.14-39.66 21.49-73.99 47.24-102.01 76.53-29.01 30.32-50.52 63.66-63.94 99.1a25.993 25.993 0 0 0 2.92 23.98 25.992 25.992 0 0 0 21.39 11.23h154.02c14.36 0 26-11.64 26-26V771.31c0-9.16-4.82-17.65-12.7-22.34a25.933 25.933 0 0 0-13.3-3.66z" p-id="5801"></path></svg>